<?xml version="1.0" standalone="no"?>
<!DOCTYPE svg PUBLIC "-//W3C//DTD SVG 20010904//EN"
 "http://www.w3.org/TR/2001/REC-SVG-20010904/DTD/svg10.dtd">
<svg version="1.0" xmlns="http://www.w3.org/2000/svg"
 width="642.000000pt" height="512.000000pt" viewBox="0 0 642.000000 512.000000"
 preserveAspectRatio="xMidYMid meet">

<g transform="translate(0.000000,512.000000) scale(0.100000,-0.100000)"
fill="#000000" stroke="none">
<path d="M2869 4490 c-88 -15 -171 -71 -215 -146 -14 -24 -41 -53 -59 -64 -59
-36 -142 -135 -164 -195 -29 -77 -28 -185 1 -262 17 -43 23 -80 23 -143 0 -69
4 -93 23 -130 29 -54 58 -87 95 -106 l27 -15 0 47 c0 34 -6 53 -25 76 -13 16
-30 47 -37 69 -10 34 -9 49 7 94 18 53 18 53 -5 85 -96 136 -45 322 115 416
31 18 51 38 61 63 21 50 51 80 109 107 82 39 168 29 238 -27 l38 -31 62 30
c85 41 139 54 227 55 173 0 339 -93 408 -229 17 -34 27 -42 70 -53 67 -17 126
-62 153 -117 18 -37 21 -57 17 -109 -5 -61 -4 -65 24 -92 79 -73 88 -201 22
-275 -19 -20 -10 -98 11 -98 18 0 74 66 96 114 22 49 24 153 5 209 -8 20 -25
52 -40 71 -20 27 -26 46 -26 85 0 119 -74 225 -191 275 -50 21 -69 35 -84 62
-26 48 -105 123 -174 165 -97 59 -159 74 -296 73 -110 0 -126 -3 -194 -30
l-75 -31 -55 28 c-62 31 -123 40 -192 29z"/>
<path d="M2679 3891 c-24 -19 -24 -21 -29 -273 l-5 -253 -207 -3 -208 -2 0
-510 0 -510 166 0 165 0 -3 53 -3 52 -105 5 -105 5 0 395 0 395 150 0 150 0 5
-662 5 -662 23 -23 23 -23 423 -3 c474 -3 514 1 641 62 235 112 366 312 366
561 0 100 -18 179 -57 258 -27 52 -99 152 -127 176 -14 11 -11 21 23 84 55
103 73 175 73 287 0 239 -113 431 -313 533 -110 57 -158 61 -195 21 l-25 -27
0 -414 c0 -267 -4 -421 -10 -434 -13 -24 -52 -25 -73 -1 -15 17 -17 63 -17
451 l0 432 -25 24 -24 25 -329 0 c-310 0 -331 -1 -353 -19z m661 -509 l5 -444
32 -28 c62 -55 147 -45 197 23 20 28 21 42 24 448 1 230 5 419 9 419 3 0 38
-15 77 -34 174 -84 279 -256 279 -456 0 -132 -35 -228 -126 -344 -29 -37 -30
-39 -11 -49 10 -6 44 -35 75 -64 62 -58 114 -146 135 -227 16 -60 18 -192 3
-256 -42 -181 -201 -335 -409 -396 -60 -18 -97 -19 -474 -16 -226 2 -413 5
-418 8 -10 6 -11 1848 -1 1857 4 4 140 6 302 5 l296 -3 5 -443z"/>
<path d="M3170 2536 c0 -2 8 -10 18 -17 15 -13 16 -12 3 4 -13 16 -21 21 -21
13z"/>
<path d="M3650 2096 c0 -2 8 -10 18 -17 15 -13 16 -12 3 4 -13 16 -21 21 -21
13z"/>
<path d="M1643 1613 c-10 -4 -13 -48 -13 -174 0 -142 2 -171 15 -175 8 -4 21
-2 28 4 7 5 21 6 32 1 83 -33 167 26 167 117 0 92 -73 146 -164 121 -28 -7
-28 -7 -28 42 0 49 -14 72 -37 64z m161 -175 c25 -35 20 -83 -10 -107 -15 -12
-35 -21 -46 -21 -28 0 -68 45 -68 76 0 64 90 101 124 52z"/>
<path d="M2895 1597 c-8 -12 -39 -88 -69 -167 -40 -105 -52 -148 -44 -157 18
-23 35 -14 51 26 18 43 31 51 90 51 50 0 62 -7 72 -40 10 -33 24 -50 42 -50
26 0 24 28 -10 116 -19 49 -46 121 -61 161 -30 79 -48 94 -71 60z m43 -136
c17 -56 16 -61 -23 -61 -23 0 -35 5 -35 14 0 21 29 86 39 86 4 0 13 -17 19
-39z"/>
<path d="M3152 1611 c-9 -6 -12 -50 -10 -177 3 -161 4 -169 23 -169 19 0 20 8
23 166 2 127 -1 169 -11 177 -7 6 -18 7 -25 3z"/>
<path d="M4472 1611 c-9 -6 -12 -50 -10 -177 3 -161 4 -169 23 -169 19 0 20 8
23 166 2 127 -1 169 -11 177 -7 6 -18 7 -25 3z"/>
<path d="M4772 1608 c-7 -7 -12 -31 -12 -54 0 -51 -8 -57 -48 -43 -25 8 -39 7
-74 -9 -81 -36 -101 -140 -39 -203 35 -35 74 -45 122 -32 25 6 41 7 48 0 5 -5
17 -7 25 -4 14 5 16 31 16 170 0 124 -3 167 -13 176 -10 8 -17 7 -25 -1z m-37
-168 c27 -30 25 -88 -4 -111 -39 -32 -83 -21 -109 28 -17 31 -15 47 9 77 26
33 77 36 104 6z"/>
<path d="M2055 1513 c-57 -15 -95 -66 -95 -131 0 -55 50 -111 105 -119 53 -7
118 19 113 44 -2 12 -11 17 -23 15 -79 -14 -97 -14 -115 3 -39 35 -26 44 66
47 104 4 116 14 89 72 -13 27 -31 44 -59 57 -42 19 -48 20 -81 12z m79 -64
c14 -11 26 -25 26 -30 0 -5 -31 -9 -70 -9 -74 0 -84 8 -53 42 21 24 64 23 97
-3z"/>
<path d="M2361 1502 c-50 -25 -73 -61 -73 -115 0 -84 60 -135 144 -124 48 6
82 35 68 56 -7 12 -13 13 -35 3 -52 -24 -115 -6 -115 33 0 6 39 12 87 15 l88
5 -1 38 c-1 43 -25 74 -71 93 -42 18 -51 18 -92 -4z m97 -48 c43 -30 28 -44
-48 -44 -74 0 -83 7 -50 40 24 24 67 26 98 4z"/>
<path d="M3975 1506 c-100 -45 -112 -171 -22 -226 116 -71 240 77 155 185 -19
24 -74 56 -95 55 -4 -1 -21 -7 -38 -14z m87 -63 c26 -30 30 -60 13 -92 -28
-54 -104 -51 -125 5 -20 51 14 104 65 104 18 0 39 -8 47 -17z"/>
<path d="M4242 1511 c-9 -6 -12 -38 -10 -127 3 -111 4 -119 23 -119 18 0 21 8
25 70 6 80 20 106 67 129 60 29 31 68 -31 42 -29 -12 -36 -12 -47 0 -8 7 -19
10 -27 5z"/>
<path d="M3440 1494 c0 -9 14 -48 30 -87 67 -160 81 -172 115 -99 11 23 23 42
28 42 4 0 16 -20 27 -45 34 -78 43 -69 121 119 30 73 30 86 0 86 -14 0 -27
-19 -47 -70 -16 -38 -34 -70 -39 -70 -6 0 -17 19 -25 43 -11 30 -20 42 -35 42
-14 0 -26 -13 -39 -42 -11 -24 -22 -43 -26 -43 -4 0 -21 32 -38 70 -24 54 -36
70 -51 70 -13 0 -21 -7 -21 -16z"/>
</g>
</svg>
